# xmcd
#
# Track frame offsets:
#	150
#	15056
#	24949
#	39420
#	64071
#	83001
#	109083
#	128788
#	150184
#	171629
#	182224
#	200416
#	229560
#	256209
#	273521
#	306854
#	318335
#	338511
#
# Disc length: 4683 seconds
#
# Revision: 2
# Processed by: cddbd v1.5.2PL0 Copyright (c) Steve Scherf et al.
# Submitted via: audiograbber 1.83.01
#
DISCID=dc124912
DTITLE=Various Artist - Latin Dance Workout CD 2
DYEAR=1900
DGENRE=
TTITLE0=El Georgeo - La Bamba
TTITLE1=El Georgeo - We Speak No Americano
TTITLE2=El Georgeo - La Bamba
TTITLE3=Ritmo Alegria - Asi Se Compone Un son
TTITLE4=Space Abound - In The Basement
TTITLE5=Julio Sanchez Ft. Lima - Baile Sesenta y Seis
TTITLE6=Checkmate Charlie - Put It In
TTITLE7=Lucky Luciano - Love To Play
TTITLE8=Ritmo Alegria - Pancho Fantasia
TTITLE9=Benny More - Yiriyirbon
TTITLE10=Ritmo Alegria - Es Hospital Del Amor
TTITLE11=Ritmo Alegria - Boliviana
TTITLE12=Mr Fashionista - Lifeline
TTITLE13=Doris Rodreguez - Move Tonight
TTITLE14=Rhythm Frontier - Do You Feel It?
TTITLE15=Grupo Cabana - One Note Samba
TTITLE16=Grupo Cabana - Desafinado
TTITLE17=Rio Combo - Summer Samba (So Nice)
EXTD=
EXTT0=
EXTT1=
EXTT2=
EXTT3=
EXTT4=
EXTT5=
EXTT6=
EXTT7=
EXTT8=
EXTT9=
EXTT10=
EXTT11=
EXTT12=
EXTT13=
EXTT14=
EXTT15=
EXTT16=
EXTT17=
PLAYORDER=
